<svg xmlns="http://www.w3.org/2000/svg">
  <!-- Writing Workshop AI capability icons. Native 24px line art; no icon font or emoji. -->
  <symbol id="mode-workshop" viewBox="0 0 24 24" fill="none" stroke="currentColor" stroke-width="1.7" stroke-linecap="round" stroke-linejoin="round">
    <path d="M12 2.2c.55 3.1 2.1 4.65 5.2 5.2-3.1.55-4.65 2.1-5.2 5.2-.55-3.1-2.1-4.65-5.2-5.2 3.1-.55 4.65-2.1 5.2-5.2Z"/>
    <path d="m12 13.2 4.25 4.25L12 22l-4.25-4.55L12 13.2Z"/><path d="M12 16.2V22"/>
    <circle cx="4.1" cy="15.8" r=".85" fill="currentColor" stroke="none"/><circle cx="20" cy="4.8" r=".85" fill="currentColor" stroke="none"/>
  </symbol>
  <symbol id="mode-polish" viewBox="0 0 24 24" fill="none" stroke="currentColor" stroke-width="1.7" stroke-linecap="round" stroke-linejoin="round">
    <path d="m4 20 1.1-4.3L15.7 5.1l3.2 3.2L8.3 18.9 4 20Z"/><path d="m13.8 7 3.2 3.2M18.2 2.4v3.2M16.6 4h3.2M20.5 11.5v2.2M19.4 12.6h2.2"/>
  </symbol>
  <symbol id="mode-expand" viewBox="0 0 24 24" fill="none" stroke="currentColor" stroke-width="1.7" stroke-linecap="round" stroke-linejoin="round">
    <rect x="8" y="8" width="8" height="8" rx="1.5"/><path d="M8 4H4v4M16 4h4v4M8 20H4v-4M16 20h4v-4"/>
  </symbol>
  <symbol id="mode-condense" viewBox="0 0 24 24" fill="none" stroke="currentColor" stroke-width="1.7" stroke-linecap="round" stroke-linejoin="round">
    <path d="M3 8h5V3M21 8h-5V3M3 16h5v5M21 16h-5v5"/><rect x="9" y="9" width="6" height="6" rx="1.3"/>
  </symbol>
  <symbol id="mode-rewrite" viewBox="0 0 24 24" fill="none" stroke="currentColor" stroke-width="1.7" stroke-linecap="round" stroke-linejoin="round">
    <path d="M4.3 8A8.5 8.5 0 0 1 18 5.3L20.5 8M19.7 16A8.5 8.5 0 0 1 6 18.7L3.5 16"/><path d="M20.5 3.8V8h-4.2M3.5 20.2V16h4.2M9 15l6-6"/>
  </symbol>
  <symbol id="mode-continue" viewBox="0 0 24 24" fill="none" stroke="currentColor" stroke-width="1.7" stroke-linecap="round" stroke-linejoin="round">
    <path d="M3 7h8M3 12h12M3 17h7"/><path d="M13 17h7M17 14l3 3-3 3"/>
  </symbol>
  <symbol id="mode-fill" viewBox="0 0 24 24" fill="none" stroke="currentColor" stroke-width="1.7" stroke-linecap="round" stroke-linejoin="round">
    <path d="M3 7h7M14 7h7M3 17h7M14 17h7"/><path d="M12 10v4M10 12h4"/><path d="M12 4v2M12 18v2" stroke-dasharray="1 2"/>
  </symbol>
  <symbol id="mode-dialogue" viewBox="0 0 24 24" fill="none" stroke="currentColor" stroke-width="1.7" stroke-linecap="round" stroke-linejoin="round">
    <path d="M4 5.5h10a2 2 0 0 1 2 2v4a2 2 0 0 1-2 2H9l-4 3v-3H4a2 2 0 0 1-2-2v-4a2 2 0 0 1 2-2Z"/><path d="M16.5 9.5H20a2 2 0 0 1 2 2v4a2 2 0 0 1-2 2h-1v2.5l-3.3-2.5H13a2 2 0 0 1-2-2v-1.7"/>
  </symbol>
  <symbol id="mode-psychology" viewBox="0 0 24 24" fill="none" stroke="currentColor" stroke-width="1.7" stroke-linecap="round" stroke-linejoin="round">
    <path d="M14 21H8v-3.6a7.5 7.5 0 1 1 8-12.2A7.2 7.2 0 0 1 18 10l3 3-3 1v3h-4"/><path d="M8.5 9.5c0-1.8 2.3-2.7 3.6-1.4 1.4 1.4.4 3.8-1.6 3.8-.8 0-1.5.7-1.5 1.5"/><circle cx="9" cy="15.8" r=".8" fill="currentColor" stroke="none"/>
  </symbol>
  <symbol id="mode-environment" viewBox="0 0 24 24" fill="none" stroke="currentColor" stroke-width="1.7" stroke-linecap="round" stroke-linejoin="round">
    <circle cx="17.5" cy="6.5" r="2.5"/><path d="m2.5 19 6.2-8 3.2 4 2.2-2.6L21.5 19H2.5Z"/><path d="M3 5.5h5M4.5 8h3"/>
  </symbol>
  <symbol id="mode-battle" viewBox="0 0 24 24" fill="none" stroke="currentColor" stroke-width="1.7" stroke-linecap="round" stroke-linejoin="round">
    <path d="m5 3 6.2 8.5-2.7 2.7L3 5l2-2ZM19 3l-6.2 8.5 2.7 2.7L21 5l-2-2Z"/><path d="m7 14-3 4 2 2 4-3M17 14l3 4-2 2-4-3"/><circle cx="12" cy="13" r="1.4"/>
  </symbol>
  <symbol id="mode-classical" viewBox="0 0 24 24" fill="none" stroke="currentColor" stroke-width="1.7" stroke-linecap="round" stroke-linejoin="round">
    <path d="M7 4h10v15H7a3 3 0 0 1-3-3V7a3 3 0 0 1 3-3Z"/><path d="M17 4a3 3 0 0 1 3 3v12h-3M7 8h7M7 12h6M7 16h4"/><path d="M4 16a3 3 0 0 1 3-3"/>
  </symbol>
  <symbol id="mode-modern" viewBox="0 0 24 24" fill="none" stroke="currentColor" stroke-width="1.7" stroke-linecap="round" stroke-linejoin="round">
    <path d="M3 21V8h7v13M10 21V3h7v18M17 21v-9h4v9M2 21h20"/><path d="M6 11h1M6 15h1M13 6h1M13 10h1M13 14h1"/>
  </symbol>
  <symbol id="mode-humor" viewBox="0 0 24 24" fill="none" stroke="currentColor" stroke-width="1.7" stroke-linecap="round" stroke-linejoin="round">
    <path d="M4 4.5c5-2 11-2 16 0v7c0 5.4-3.1 8.6-8 10-4.9-1.4-8-4.6-8-10v-7Z"/><path d="M7.5 9h2M15 8.5l2 1M8 14.5c1.4 2.3 6.6 2.3 8 0"/>
  </symbol>
  <symbol id="mode-suspense" viewBox="0 0 24 24" fill="none" stroke="currentColor" stroke-width="1.7" stroke-linecap="round" stroke-linejoin="round">
    <path d="M2.5 12s3.6-5.5 9.5-5.5 9.5 5.5 9.5 5.5-3.6 5.5-9.5 5.5S2.5 12 2.5 12Z"/><path d="M9.5 10.2a2.6 2.6 0 1 1 3 4.2V16"/><circle cx="12.5" cy="18.5" r=".75" fill="currentColor" stroke="none"/>
  </symbol>
  <symbol id="mode-poetic" viewBox="0 0 24 24" fill="none" stroke="currentColor" stroke-width="1.7" stroke-linecap="round" stroke-linejoin="round">
    <path d="M4 21c3-7.8 7.3-13.4 16-18 1 8.4-3.5 14.8-12.5 14.8"/><path d="M6.5 18.5c4-3.3 7.2-6.2 10.2-10.2M10.2 15.3l-.7-4M13.5 12.2l3.7-.7"/>
  </symbol>
  <symbol id="mode-epic" viewBox="0 0 24 24" fill="none" stroke="currentColor" stroke-width="1.7" stroke-linecap="round" stroke-linejoin="round">
    <path d="m3 8 4.5 3L12 4l4.5 7L21 8l-2 10H5L3 8Z"/><path d="M6 21h12M8 14h8M12 1v1M2 4l2 1M22 4l-2 1"/>
  </symbol>
  <symbol id="mode-analyze" viewBox="0 0 24 24" fill="none" stroke="currentColor" stroke-width="1.7" stroke-linecap="round" stroke-linejoin="round">
    <circle cx="10" cy="10" r="6.5"/><path d="m15 15 6 6M7 12V9M10 12V6.5M13 12v-2"/>
  </symbol>
  <symbol id="mode-proofread" viewBox="0 0 24 24" fill="none" stroke="currentColor" stroke-width="1.7" stroke-linecap="round" stroke-linejoin="round">
    <path d="M5 2.5h10l4 4V21H5V2.5Z"/><path d="M15 2.5v4h4M8 11h7M8 15l2 2 5-5"/>
  </symbol>
  <symbol id="mode-rhythm" viewBox="0 0 24 24" fill="none" stroke="currentColor" stroke-width="1.7" stroke-linecap="round" stroke-linejoin="round">
    <path d="M2 13h3l2-6 3.5 12 3-9 2 5H22"/><path d="M3 4h18M3 21h18" opacity=".55"/>
  </symbol>
  <symbol id="mode-emotion" viewBox="0 0 24 24" fill="none" stroke="currentColor" stroke-width="1.7" stroke-linecap="round" stroke-linejoin="round">
    <path d="M20.5 5.8c-2.4-2.4-6.1-1.6-8.5 1-2.4-2.6-6.1-3.4-8.5-1-3.2 3.2-.4 8.2 8.5 14.2 8.9-6 11.7-11 8.5-14.2Z"/><path d="M5.5 12h3l1.3-2.5 2.3 5 1.7-3h4.7"/>
  </symbol>
  <symbol id="mode-outline" viewBox="0 0 24 24" fill="none" stroke="currentColor" stroke-width="1.7" stroke-linecap="round" stroke-linejoin="round">
    <rect x="9" y="2.5" width="6" height="4" rx="1"/><rect x="2.5" y="17.5" width="6" height="4" rx="1"/><rect x="15.5" y="17.5" width="6" height="4" rx="1"/><path d="M12 6.5v5.5M5.5 17.5V12h13v5.5"/>
  </symbol>
  <symbol id="mode-character" viewBox="0 0 24 24" fill="none" stroke="currentColor" stroke-width="1.7" stroke-linecap="round" stroke-linejoin="round">
    <circle cx="8" cy="8" r="3.5"/><path d="M2.5 20c.4-4 2.2-6 5.5-6s5.1 2 5.5 6M16 7h5M16 11h5M16 15h4M16 19h3"/>
  </symbol>
  <symbol id="mode-foreshadow" viewBox="0 0 24 24" fill="none" stroke="currentColor" stroke-width="1.7" stroke-linecap="round" stroke-linejoin="round">
    <path d="M2 12h20" stroke-dasharray="2 2"/><path d="M12 20v-8M12 16c-3.5 0-5.5-1.8-5.5-4.5 3.5 0 5.5 1.8 5.5 4.5ZM12 16c3.5 0 5.5-1.8 5.5-4.5-3.5 0-5.5 1.8-5.5 4.5Z"/><circle cx="12" cy="6" r="2.2"/>
  </symbol>
  <symbol id="mode-twist" viewBox="0 0 24 24" fill="none" stroke="currentColor" stroke-width="1.7" stroke-linecap="round" stroke-linejoin="round">
    <path d="M3 6h5c7 0 2 12 9 12h4M17 14l4 4-4 4"/><path d="M3 18h4c2.7 0 3.6-1.8 4.4-4" opacity=".65"/>
  </symbol>
  <symbol id="mode-ending" viewBox="0 0 24 24" fill="none" stroke="currentColor" stroke-width="1.7" stroke-linecap="round" stroke-linejoin="round">
    <path d="M4 21V4M5 5h11l-2 3 2 3H5M4 21h17"/><path d="M8 18c2-3 4-3 6-5" stroke-dasharray="2 2"/>
  </symbol>
  <symbol id="mode-translate" viewBox="0 0 24 24" fill="none" stroke="currentColor" stroke-width="1.7" stroke-linecap="round" stroke-linejoin="round">
    <rect x="2.5" y="4" width="8" height="7" rx="1.5"/><rect x="13.5" y="13" width="8" height="7" rx="1.5"/><path d="M6.5 7h2M4.5 9h4M11 8h5l-2-2M13 16H8l2 2M17 16h2M15.5 18h3.5"/>
  </symbol>
  <symbol id="mode-summarize" viewBox="0 0 24 24" fill="none" stroke="currentColor" stroke-width="1.7" stroke-linecap="round" stroke-linejoin="round">
    <path d="M3 5h8M3 9h8M3 13h8M3 17h8"/><path d="M13 11h7M13 15h7M13 19h4M14 5l3 3 3-3"/>
  </symbol>
  <symbol id="mode-title" viewBox="0 0 24 24" fill="none" stroke="currentColor" stroke-width="1.7" stroke-linecap="round" stroke-linejoin="round">
    <path d="M4 3h16v18H4V3Z"/><path d="M8 7h8M8 11h6M8 15h8"/><path d="M16 15v6l2-1.5 2 1.5v-6"/>
  </symbol>
  <symbol id="mode-humanize" viewBox="0 0 24 24" fill="none" stroke="currentColor" stroke-width="1.7" stroke-linecap="round" stroke-linejoin="round">
    <path d="M4 14c0-5 3-9 8-9 4.5 0 7.5 3.2 7.5 7.5 0 3.5-2 6.5-5.5 7.5"/><path d="M7 14c0-3.4 1.9-6 5-6 2.7 0 4.5 2 4.5 4.7 0 2.2-1.2 4-3.2 4.8M10 14c0-1.6.8-2.8 2.1-2.8 1.2 0 2 .9 2 2.2 0 1-.5 1.8-1.3 2.4"/><path d="M3 19c2.5-1.2 4-3.1 4-5"/>
  </symbol>
  <symbol id="mode-detect" viewBox="0 0 24 24" fill="none" stroke="currentColor" stroke-width="1.7" stroke-linecap="round" stroke-linejoin="round">
    <path d="M8 3H3v5M16 3h5v5M8 21H3v-5M16 21h5v-5"/><path d="M7.5 12s1.7-3 4.5-3 4.5 3 4.5 3-1.7 3-4.5 3-4.5-3-4.5-3Z"/><circle cx="12" cy="12" r="1.2"/>
  </symbol>
</svg>
